<svg id="Layer_1" data-name="Layer 1" xmlns="http://www.w3.org/2000/svg" viewBox="0 0 400 400"><defs><style>.cls-1{fill:#262a33;}.cls-2{fill:none;}.cls-3{fill:#fff;}</style></defs><title>Artboard 2 copy 4</title><rect class="cls-1" x="-0.01" y="0.08" width="400" height="400" rx="70"/><path class="cls-2" d="M194.69,80.65c-3.69,0-69.93,2.7-69.93,57.91v47.23H264.62V138.56C264.62,83.35,198.37,80.65,194.69,80.65Z"/><path class="cls-3" d="M322.47,212.39V137.24C322.47,24.94,199.73,28,199.73,28S77,24.94,77,137.24v75.11c0,.53,0,1,0,1.5v28.26h0V358.16c0,3.68,0,13.5,13.5,13.5H309c13.5,0,13.5-9.82,13.5-13.5V242.1l0,0V214.2C322.46,213.63,322.47,213,322.47,212.39Zm-122.87,127c-25.25,0-45.85-3.77-45.85-17.28s20.6-46.29,45.85-46.29,45.86,32.78,45.86,46.29S224.85,339.36,199.6,339.36Zm-29.91-103a29.91,29.91,0,1,1,29.91,29.92,29.91,29.91,0,0,1-29.91-29.92v0Zm100-50.64H129.78V138.47c0-55.23,66.27-57.93,69.95-57.93s70,2.7,70,57.93Z"/><path id="Path_2045" data-name="Path 2045" class="cls-3" d="M338.94,182H335a1.56,1.56,0,0,0-1.56,1.56h0v52.77a1.56,1.56,0,0,0,1.56,1.57h19.6a1.56,1.56,0,0,0,1.57-1.56h0V199.28A17.28,17.28,0,0,0,338.94,182Z"/><path id="Path_2046" data-name="Path 2046" class="cls-3" d="M354.65,249.42h-19.6a1.57,1.57,0,0,0-1.57,1.56h0v53a1.56,1.56,0,0,0,1.57,1.56h19.6a1.56,1.56,0,0,0,1.56-1.57h0V251A1.56,1.56,0,0,0,354.65,249.42Z"/><path id="Path_2047" data-name="Path 2047" class="cls-3" d="M354.66,317.1h-19.6a1.57,1.57,0,0,0-1.57,1.56v52.77a1.57,1.57,0,0,0,1.56,1.57H339a17.27,17.27,0,0,0,17.25-17.26V318.67a1.56,1.56,0,0,0-1.56-1.57Z"/></svg>