<svg id="Layer_1" data-name="Layer 1" xmlns="http://www.w3.org/2000/svg" viewBox="0 0 400 400"><defs><style>.cls-1{fill:#262a33;}.cls-2{fill:#fff;}</style></defs><title>Artboard 3 copy 2</title><circle class="cls-1" cx="199.95" cy="200" r="200"/><path class="cls-2" d="M282.24,80.3H117.65a22.44,22.44,0,0,0-22.44,22.44V297.26a22.44,22.44,0,0,0,22.44,22.44H282.24a22.45,22.45,0,0,0,22.45-22.44h0V102.74A22.45,22.45,0,0,0,282.24,80.3ZM214.91,203.74h15a33.74,33.74,0,0,1,33.67,33.67v7.48a3.75,3.75,0,0,1-3.74,3.74H185a3.75,3.75,0,0,1-3.74-3.74v-7.48A33.75,33.75,0,0,1,214.91,203.74Zm-11.22-33.67a18.71,18.71,0,1,1,18.7,18.71A18.7,18.7,0,0,1,203.69,170.07ZM110.17,297.26V102.74a7.48,7.48,0,0,1,7.48-7.48H140.1V304.74H117.65A7.48,7.48,0,0,1,110.17,297.26Z"/></svg>