<svg id="Layer_1" data-name="Layer 1" xmlns="http://www.w3.org/2000/svg" viewBox="0 0 400 400"><defs><style>.cls-1{fill:#262a33;}.cls-2{fill:#fff;}</style></defs><title>Artboard 3 copy 3</title><rect class="cls-1" x="-0.41" width="400" height="400" rx="70"/><path class="cls-2" d="M61.16,363.46c0-62,37-118,95.36-139.46,2.38-1.19,7.15,0,8.34,2.39,14.31,15.49,28.61,35.76,41.72,52.44l38.14-52.44c2.39-3.58,6-4.77,8.35-3.58,66.75,21.46,97.74,72.71,97.74,140.65,0,4.77-2.38,9.54-7.15,9.54H68.31C63.55,373,61.16,368.23,61.16,363.46ZM206.58,27.33c47.68,0,84.63,39.33,84.63,85.82,0,47.68-36.95,87-84.63,87s-85.82-39.33-85.82-87C120.76,66.66,158.9,27.33,206.58,27.33Z"/></svg>